<?xml version="1.0" standalone="no"?>
<!-- Generator: Adobe Fireworks 10, Export SVG Extension by Aaron Beall (http://fireworks.abeall.com) . Version: 0.6.1  -->
<!DOCTYPE svg PUBLIC "-//W3C//DTD SVG 1.1//EN" "http://www.w3.org/Graphics/SVG/1.1/DTD/svg11.dtd">
<svg id="Untitled-P%E1gina%201" viewBox="0 0 16 12" style="background-color:#ffffff00" version="1.1"
	xmlns="http://www.w3.org/2000/svg" xmlns:xlink="http://www.w3.org/1999/xlink" xml:space="preserve"
	x="0px" y="0px" width="16px" height="12px"
>
	<g>
		<path d="M 8.2129 7.6819 C 7.9288 7.9683 7.9288 8.4327 8.2129 8.7192 C 8.355 8.8624 8.541 8.934 8.7272 8.934 C 8.9132 8.934 9.0995 8.8624 9.2415 8.7192 L 11.4231 6.5189 C 11.4399 6.5019 11.4558 6.484 11.4709 6.4655 C 11.4744 6.4614 11.4773 6.4569 11.4805 6.4526 C 11.4919 6.438 11.5032 6.4233 11.5134 6.4078 C 11.5161 6.4037 11.5183 6.3995 11.521 6.3954 C 11.5311 6.3793 11.5413 6.363 11.5502 6.3461 C 11.5518 6.3432 11.553 6.3401 11.5544 6.3372 C 11.5638 6.3189 11.5728 6.3004 11.5807 6.2812 C 11.5815 6.2792 11.582 6.2772 11.5828 6.2753 C 11.5909 6.2552 11.5984 6.2347 11.6046 6.2137 C 11.6053 6.2115 11.6057 6.2092 11.6064 6.2069 C 11.6123 6.1864 11.6178 6.1656 11.6219 6.1444 C 11.623 6.1385 11.6237 6.1324 11.6246 6.1265 C 11.6277 6.1088 11.6307 6.0912 11.6326 6.0732 C 11.6349 6.049 11.6362 6.0246 11.6362 6.0001 C 11.6362 5.9755 11.6349 5.951 11.6326 5.9269 C 11.6307 5.9087 11.6277 5.8909 11.6245 5.8732 C 11.6235 5.8674 11.623 5.8615 11.6218 5.8557 C 11.6177 5.8344 11.6123 5.8135 11.6062 5.7928 C 11.6056 5.7906 11.6052 5.7885 11.6046 5.7864 C 11.5983 5.7653 11.5907 5.7447 11.5825 5.7244 C 11.5818 5.7227 11.5813 5.7208 11.5806 5.719 C 11.5726 5.6997 11.5637 5.681 11.5542 5.6627 C 11.5527 5.6598 11.5516 5.6569 11.55 5.6541 C 11.541 5.637 11.531 5.6207 11.5208 5.6045 C 11.5181 5.6005 11.516 5.5963 11.5134 5.5923 C 11.5031 5.5768 11.4918 5.562 11.4803 5.5474 C 11.4771 5.5432 11.4742 5.5388 11.4709 5.5346 C 11.4558 5.5161 11.4398 5.4982 11.423 5.4813 L 9.2413 3.2809 C 8.9573 2.9944 8.4968 2.9944 8.2128 3.2809 C 7.9287 3.5674 7.9287 4.0317 8.2128 4.3182 L 9.1531 5.2665 L 0.7273 5.2665 C 0.3257 5.2665 0 5.595 0 6.0001 C 0 6.4052 0.3257 6.7336 0.7273 6.7336 L 9.1532 6.7336 L 8.2129 7.6819 Z" fill="#ffffff"/>
		<path d="M 10.0509 0 C 8.0657 0 6.2186 0.9932 5.1101 2.6569 C 4.8861 2.9931 4.9747 3.4489 5.3081 3.6747 C 5.6415 3.9007 6.0934 3.8113 6.3174 3.4751 C 7.1553 2.2177 8.551 1.467 10.0509 1.467 C 12.5293 1.467 14.5454 3.5005 14.5454 6 C 14.5454 8.4995 12.5292 10.533 10.0509 10.533 C 8.5554 10.533 7.162 9.7857 6.3235 8.5339 C 6.0986 8.1982 5.6465 8.11 5.3137 8.3368 C 4.9808 8.5635 4.8933 9.0195 5.1182 9.3552 C 6.2275 11.0114 8.0717 12 10.0509 12 C 13.3313 12 16 9.3084 16 6 C 16 2.6917 13.3312 0 10.0509 0 Z" fill="#ffffff"/>
	</g>
</svg>